<svg width="40" height="40" viewBox="0 0 40 40" fill="none" xmlns="http://www.w3.org/2000/svg">
<path d="M36.75 18.9376C36.7565 21.4123 36.1783 23.8536 35.0625 26.0626C33.7396 28.7096 31.7058 30.936 29.189 32.4925C26.6722 34.0489 23.7717 34.8739 20.8125 34.8751C18.3377 34.8815 15.8965 34.3033 13.6875 33.1876L3 36.7501L6.5625 26.0626C5.44675 23.8536 4.86855 21.4123 4.875 18.9376C4.87615 15.9783 5.70115 13.0779 7.2576 10.5611C8.81405 8.04427 11.0405 6.01049 13.6875 4.68755C15.8965 3.5718 18.3377 2.9936 20.8125 3.00005H21.75C25.6582 3.21566 29.3495 4.86523 32.1171 7.63291C34.8848 10.4006 36.5344 14.0919 36.75 18.0001V18.9376Z" stroke="white" stroke-width="5" stroke-linecap="round" stroke-linejoin="round"/>
</svg>
